<svg xmlns="http://www.w3.org/2000/svg" viewBox="0 0 600 600"><defs><radialGradient id="g" cx=".3" cy=".25" r="1"><stop offset="0" stop-color="#3a2d1d"/><stop offset="1" stop-color="#14110e"/></radialGradient></defs><rect width="600" height="600" fill="url(#g)"/><circle cx="300" cy="285" r="225" fill="#c98a2b"/><circle cx="300" cy="285" r="203" fill="#b3262d"/><circle cx="300" cy="285" r="191" fill="#f0c04a"/><circle cx="221" cy="339" r="13" fill="#3a8f3a"/><circle cx="292" cy="282" r="12" fill="#1d1d1d"/><circle cx="233" cy="270" r="16" fill="#c9b79a"/><circle cx="383" cy="310" r="14" fill="#3a8f3a"/><circle cx="299" cy="286" r="14" fill="#3a8f3a"/><circle cx="275" cy="377" r="10" fill="#7ed321"/><circle cx="311" cy="343" r="15" fill="#c9b79a"/><circle cx="239" cy="411" r="10" fill="#fffbe8"/><circle cx="316" cy="273" r="13" fill="#fffbe8"/><circle cx="277" cy="221" r="11" fill="#1d1d1d"/><circle cx="280" cy="291" r="11" fill="#7ed321"/><circle cx="316" cy="388" r="10" fill="#fffbe8"/><circle cx="300" cy="290" r="15" fill="#1d1d1d"/><circle cx="439" cy="223" r="12" fill="#c9b79a"/><circle cx="312" cy="273" r="12" fill="#c9b79a"/><circle cx="310" cy="179" r="15" fill="#1d1d1d"/><circle cx="316" cy="149" r="10" fill="#3a8f3a"/><circle cx="212" cy="280" r="15" fill="#7ed321"/><circle cx="256" cy="330" r="11" fill="#1d1d1d"/><circle cx="375" cy="401" r="15" fill="#c9b79a"/><circle cx="438" cy="296" r="12" fill="#1d1d1d"/><circle cx="376" cy="410" r="12" fill="#7ed321"/><circle cx="440" cy="297" r="14" fill="#fffbe8"/><circle cx="399" cy="222" r="16" fill="#c9b79a"/><circle cx="187" cy="390" r="13" fill="#c9b79a"/><circle cx="303" cy="371" r="11" fill="#3a8f3a"/><circle cx="365" cy="247" r="13" fill="#7ed321"/><circle cx="278" cy="311" r="9" fill="#7ed321"/><circle cx="325" cy="394" r="13" fill="#fffbe8"/><circle cx="166" cy="368" r="14" fill="#7ed321"/><text x="300" y="574" text-anchor="middle" font-family="Arial,sans-serif" font-size="18" fill="#a89f92" letter-spacing="3">MOCK IMAGE · BURN TO HELL</text></svg>