<svg xmlns="http://www.w3.org/2000/svg" viewBox="0 0 600 600"><defs><radialGradient id="g" cx=".3" cy=".25" r="1"><stop offset="0" stop-color="#3a2d1d"/><stop offset="1" stop-color="#14110e"/></radialGradient></defs><rect width="600" height="600" fill="url(#g)"/><path d="M100 300h400q0 160-200 160T100 300z" fill="#f4efe6"/><path d="M130 290q60-50 120 0t120 0t120 0" stroke="#e8b020" stroke-width="14" fill="none" stroke-linecap="round"/><path d="M135 282q60-50 120 0t120 0t120 0" stroke="#e8b020" stroke-width="14" fill="none" stroke-linecap="round"/><path d="M140 274q60-50 120 0t120 0t120 0" stroke="#e8b020" stroke-width="14" fill="none" stroke-linecap="round"/><path d="M145 266q60-50 120 0t120 0t120 0" stroke="#e8b020" stroke-width="14" fill="none" stroke-linecap="round"/><path d="M150 258q60-50 120 0t120 0t120 0" stroke="#e8b020" stroke-width="14" fill="none" stroke-linecap="round"/><path d="M155 250q60-50 120 0t120 0t120 0" stroke="#e8b020" stroke-width="14" fill="none" stroke-linecap="round"/><path d="M160 242q60-50 120 0t120 0t120 0" stroke="#e8b020" stroke-width="14" fill="none" stroke-linecap="round"/><text x="300" y="574" text-anchor="middle" font-family="Arial,sans-serif" font-size="18" fill="#a89f92" letter-spacing="3">MOCK IMAGE · CHOWMEIN</text></svg>