<svg xmlns="http://www.w3.org/2000/svg" viewBox="0 0 600 600"><defs><radialGradient id="g" cx=".3" cy=".25" r="1"><stop offset="0" stop-color="#3a2d1d"/><stop offset="1" stop-color="#14110e"/></radialGradient></defs><rect width="600" height="600" fill="url(#g)"/><circle cx="300" cy="285" r="225" fill="#c98a2b"/><circle cx="300" cy="285" r="203" fill="#b3262d"/><circle cx="300" cy="285" r="191" fill="#f0c04a"/><circle cx="199" cy="203" r="14" fill="#3a8f3a"/><circle cx="309" cy="297" r="13" fill="#e9d9f0"/><circle cx="256" cy="199" r="14" fill="#c9b79a"/><circle cx="301" cy="259" r="15" fill="#d9342b"/><circle cx="278" cy="302" r="11" fill="#c9b79a"/><circle cx="364" cy="217" r="16" fill="#3a8f3a"/><circle cx="240" cy="266" r="16" fill="#c9b79a"/><circle cx="285" cy="287" r="16" fill="#3a8f3a"/><circle cx="345" cy="297" r="14" fill="#e9d9f0"/><circle cx="419" cy="204" r="14" fill="#e9d9f0"/><circle cx="260" cy="419" r="14" fill="#c9b79a"/><circle cx="302" cy="290" r="12" fill="#e9d9f0"/><circle cx="353" cy="273" r="14" fill="#e9d9f0"/><circle cx="295" cy="267" r="10" fill="#c9b79a"/><circle cx="358" cy="245" r="15" fill="#3a8f3a"/><circle cx="208" cy="273" r="9" fill="#e9d9f0"/><circle cx="368" cy="299" r="13" fill="#3a8f3a"/><circle cx="267" cy="264" r="13" fill="#d9342b"/><circle cx="302" cy="235" r="12" fill="#d9342b"/><circle cx="258" cy="267" r="12" fill="#3a8f3a"/><circle cx="288" cy="203" r="9" fill="#c9b79a"/><circle cx="326" cy="386" r="12" fill="#3a8f3a"/><circle cx="278" cy="294" r="10" fill="#c9b79a"/><circle cx="448" cy="277" r="16" fill="#d9342b"/><circle cx="278" cy="300" r="12" fill="#c9b79a"/><circle cx="190" cy="239" r="13" fill="#c9b79a"/><circle cx="375" cy="342" r="15" fill="#e9d9f0"/><circle cx="310" cy="332" r="14" fill="#c9b79a"/><circle cx="316" cy="235" r="9" fill="#d9342b"/><circle cx="276" cy="224" r="10" fill="#d9342b"/><text x="300" y="574" text-anchor="middle" font-family="Arial,sans-serif" font-size="18" fill="#a89f92" letter-spacing="3">MOCK IMAGE · GARDEN SPECIAL</text></svg>