<svg xmlns="http://www.w3.org/2000/svg" viewBox="0 0 600 600"><defs><radialGradient id="g" cx=".3" cy=".25" r="1"><stop offset="0" stop-color="#3a2d1d"/><stop offset="1" stop-color="#14110e"/></radialGradient></defs><rect width="600" height="600" fill="url(#g)"/><circle cx="300" cy="285" r="225" fill="#c98a2b"/><circle cx="300" cy="285" r="203" fill="#b3262d"/><circle cx="300" cy="285" r="191" fill="#f0c04a"/><circle cx="254" cy="312" r="16" fill="#1d1d1d"/><circle cx="270" cy="323" r="10" fill="#7ed321"/><circle cx="270" cy="293" r="14" fill="#1d1d1d"/><circle cx="316" cy="199" r="12" fill="#7ed321"/><circle cx="278" cy="390" r="10" fill="#1d1d1d"/><circle cx="422" cy="262" r="15" fill="#7ed321"/><circle cx="296" cy="446" r="16" fill="#7ed321"/><circle cx="378" cy="364" r="15" fill="#1d1d1d"/><circle cx="422" cy="273" r="13" fill="#7ed321"/><circle cx="290" cy="190" r="12" fill="#1d1d1d"/><circle cx="302" cy="153" r="14" fill="#1d1d1d"/><circle cx="268" cy="303" r="16" fill="#7ed321"/><circle cx="274" cy="266" r="14" fill="#1d1d1d"/><circle cx="243" cy="349" r="9" fill="#1d1d1d"/><circle cx="400" cy="216" r="9" fill="#1d1d1d"/><circle cx="211" cy="226" r="11" fill="#7ed321"/><circle cx="346" cy="293" r="10" fill="#1d1d1d"/><circle cx="177" cy="193" r="13" fill="#7ed321"/><circle cx="301" cy="295" r="15" fill="#1d1d1d"/><circle cx="204" cy="263" r="12" fill="#1d1d1d"/><circle cx="257" cy="442" r="15" fill="#1d1d1d"/><circle cx="263" cy="381" r="16" fill="#7ed321"/><circle cx="323" cy="196" r="9" fill="#7ed321"/><circle cx="193" cy="324" r="9" fill="#1d1d1d"/><circle cx="318" cy="344" r="12" fill="#7ed321"/><circle cx="329" cy="310" r="12" fill="#1d1d1d"/><circle cx="251" cy="290" r="14" fill="#1d1d1d"/><circle cx="310" cy="203" r="16" fill="#7ed321"/><circle cx="305" cy="420" r="11" fill="#7ed321"/><circle cx="323" cy="252" r="12" fill="#7ed321"/><text x="300" y="574" text-anchor="middle" font-family="Arial,sans-serif" font-size="18" fill="#a89f92" letter-spacing="3">MOCK IMAGE · JALAPENOS OLIVE</text></svg>