<svg xmlns="http://www.w3.org/2000/svg" viewBox="0 0 600 600"><defs><radialGradient id="g" cx=".3" cy=".25" r="1"><stop offset="0" stop-color="#3a2d1d"/><stop offset="1" stop-color="#14110e"/></radialGradient></defs><rect width="600" height="600" fill="url(#g)"/><circle cx="300" cy="285" r="225" fill="#c98a2b"/><circle cx="300" cy="285" r="203" fill="#b3262d"/><circle cx="300" cy="285" r="191" fill="#f0c04a"/><circle cx="315" cy="278" r="16" fill="#e9d9f0"/><circle cx="318" cy="360" r="13" fill="#e9d9f0"/><circle cx="307" cy="285" r="15" fill="#e9d9f0"/><circle cx="442" cy="296" r="12" fill="#e9d9f0"/><circle cx="280" cy="156" r="13" fill="#e9d9f0"/><circle cx="228" cy="217" r="11" fill="#e9d9f0"/><circle cx="170" cy="333" r="14" fill="#e9d9f0"/><circle cx="284" cy="258" r="13" fill="#e9d9f0"/><circle cx="146" cy="313" r="10" fill="#e9d9f0"/><circle cx="248" cy="254" r="10" fill="#e9d9f0"/><circle cx="176" cy="186" r="10" fill="#e9d9f0"/><circle cx="373" cy="287" r="10" fill="#e9d9f0"/><circle cx="221" cy="286" r="14" fill="#e9d9f0"/><circle cx="245" cy="308" r="10" fill="#e9d9f0"/><circle cx="407" cy="177" r="12" fill="#e9d9f0"/><circle cx="227" cy="222" r="16" fill="#e9d9f0"/><circle cx="180" cy="298" r="14" fill="#e9d9f0"/><circle cx="251" cy="392" r="9" fill="#e9d9f0"/><circle cx="318" cy="258" r="11" fill="#e9d9f0"/><circle cx="183" cy="198" r="9" fill="#e9d9f0"/><circle cx="331" cy="323" r="10" fill="#e9d9f0"/><circle cx="212" cy="244" r="12" fill="#e9d9f0"/><circle cx="380" cy="244" r="15" fill="#e9d9f0"/><circle cx="367" cy="403" r="16" fill="#e9d9f0"/><circle cx="335" cy="217" r="16" fill="#e9d9f0"/><circle cx="307" cy="435" r="15" fill="#e9d9f0"/><circle cx="227" cy="337" r="11" fill="#e9d9f0"/><circle cx="365" cy="313" r="11" fill="#e9d9f0"/><circle cx="301" cy="296" r="9" fill="#e9d9f0"/><circle cx="233" cy="224" r="13" fill="#e9d9f0"/><text x="300" y="574" text-anchor="middle" font-family="Arial,sans-serif" font-size="18" fill="#a89f92" letter-spacing="3">MOCK IMAGE · ONION</text></svg>