<svg xmlns="http://www.w3.org/2000/svg" viewBox="0 0 600 600"><defs><radialGradient id="g" cx=".3" cy=".25" r="1"><stop offset="0" stop-color="#3a2d1d"/><stop offset="1" stop-color="#14110e"/></radialGradient></defs><rect width="600" height="600" fill="url(#g)"/><circle cx="300" cy="285" r="225" fill="#c98a2b"/><circle cx="300" cy="285" r="203" fill="#b3262d"/><circle cx="300" cy="285" r="191" fill="#f0c04a"/><circle cx="308" cy="153" r="12" fill="#e9d9f0"/><circle cx="300" cy="275" r="14" fill="#e03a1e"/><circle cx="206" cy="205" r="9" fill="#3a8f3a"/><circle cx="311" cy="303" r="9" fill="#f6ecc8"/><circle cx="297" cy="295" r="16" fill="#e03a1e"/><circle cx="190" cy="351" r="13" fill="#3a8f3a"/><circle cx="165" cy="270" r="10" fill="#3a8f3a"/><circle cx="210" cy="398" r="9" fill="#e9d9f0"/><circle cx="450" cy="308" r="11" fill="#e03a1e"/><circle cx="396" cy="330" r="9" fill="#f6ecc8"/><circle cx="321" cy="189" r="9" fill="#f6ecc8"/><circle cx="418" cy="234" r="9" fill="#f6ecc8"/><circle cx="329" cy="167" r="9" fill="#3a8f3a"/><circle cx="302" cy="298" r="14" fill="#f6ecc8"/><circle cx="165" cy="192" r="16" fill="#e9d9f0"/><circle cx="241" cy="290" r="11" fill="#e03a1e"/><circle cx="370" cy="333" r="15" fill="#f6ecc8"/><circle cx="378" cy="328" r="10" fill="#e9d9f0"/><circle cx="314" cy="254" r="12" fill="#e03a1e"/><circle cx="194" cy="311" r="12" fill="#f6ecc8"/><circle cx="190" cy="390" r="14" fill="#3a8f3a"/><circle cx="263" cy="370" r="13" fill="#e9d9f0"/><circle cx="342" cy="367" r="16" fill="#f6ecc8"/><circle cx="409" cy="302" r="11" fill="#e9d9f0"/><circle cx="404" cy="160" r="14" fill="#3a8f3a"/><circle cx="304" cy="305" r="11" fill="#e03a1e"/><circle cx="286" cy="298" r="13" fill="#f6ecc8"/><circle cx="418" cy="358" r="14" fill="#3a8f3a"/><circle cx="299" cy="299" r="12" fill="#3a8f3a"/><circle cx="272" cy="377" r="11" fill="#e9d9f0"/><text x="300" y="574" text-anchor="middle" font-family="Arial,sans-serif" font-size="18" fill="#a89f92" letter-spacing="3">MOCK IMAGE · PANEER TIKKA BUTTER MASALA</text></svg>