<svg xmlns="http://www.w3.org/2000/svg" viewBox="0 0 600 600"><defs><radialGradient id="g" cx=".3" cy=".25" r="1"><stop offset="0" stop-color="#3a2d1d"/><stop offset="1" stop-color="#14110e"/></radialGradient></defs><rect width="600" height="600" fill="url(#g)"/><circle cx="300" cy="285" r="225" fill="#c98a2b"/><circle cx="300" cy="285" r="203" fill="#b3262d"/><circle cx="300" cy="285" r="191" fill="#f0c04a"/><circle cx="242" cy="202" r="16" fill="#f6ecc8"/><circle cx="268" cy="294" r="12" fill="#f6ecc8"/><circle cx="329" cy="253" r="11" fill="#f6ecc8"/><circle cx="306" cy="276" r="12" fill="#f6ecc8"/><circle cx="276" cy="224" r="9" fill="#f6ecc8"/><circle cx="282" cy="287" r="9" fill="#f6ecc8"/><circle cx="300" cy="379" r="14" fill="#f6ecc8"/><circle cx="413" cy="276" r="11" fill="#f6ecc8"/><circle cx="379" cy="366" r="13" fill="#f6ecc8"/><circle cx="175" cy="322" r="15" fill="#f6ecc8"/><circle cx="295" cy="195" r="13" fill="#f6ecc8"/><circle cx="188" cy="337" r="9" fill="#f6ecc8"/><circle cx="253" cy="203" r="11" fill="#f6ecc8"/><circle cx="240" cy="353" r="9" fill="#f6ecc8"/><circle cx="319" cy="239" r="13" fill="#f6ecc8"/><circle cx="204" cy="166" r="13" fill="#f6ecc8"/><circle cx="285" cy="264" r="10" fill="#f6ecc8"/><circle cx="327" cy="300" r="12" fill="#f6ecc8"/><circle cx="242" cy="356" r="14" fill="#f6ecc8"/><circle cx="294" cy="288" r="15" fill="#f6ecc8"/><circle cx="257" cy="414" r="10" fill="#f6ecc8"/><circle cx="394" cy="275" r="12" fill="#f6ecc8"/><circle cx="288" cy="323" r="10" fill="#f6ecc8"/><circle cx="298" cy="282" r="15" fill="#f6ecc8"/><circle cx="282" cy="304" r="13" fill="#f6ecc8"/><circle cx="257" cy="364" r="10" fill="#f6ecc8"/><circle cx="300" cy="284" r="10" fill="#f6ecc8"/><circle cx="193" cy="366" r="10" fill="#f6ecc8"/><circle cx="326" cy="386" r="16" fill="#f6ecc8"/><circle cx="334" cy="227" r="13" fill="#f6ecc8"/><text x="300" y="574" text-anchor="middle" font-family="Arial,sans-serif" font-size="18" fill="#a89f92" letter-spacing="3">MOCK IMAGE · PANEER PIZZA</text></svg>