<svg xmlns="http://www.w3.org/2000/svg" viewBox="0 0 600 600"><defs><radialGradient id="g" cx=".3" cy=".25" r="1"><stop offset="0" stop-color="#3a2d1d"/><stop offset="1" stop-color="#14110e"/></radialGradient></defs><rect width="600" height="600" fill="url(#g)"/><circle cx="300" cy="285" r="225" fill="#c98a2b"/><circle cx="300" cy="285" r="203" fill="#b3262d"/><circle cx="300" cy="285" r="191" fill="#f0c04a"/><circle cx="152" cy="322" r="14" fill="#d9342b"/><circle cx="309" cy="383" r="10" fill="#d9342b"/><circle cx="324" cy="309" r="13" fill="#d9342b"/><circle cx="358" cy="165" r="10" fill="#f5d142"/><circle cx="330" cy="309" r="14" fill="#f5d142"/><circle cx="239" cy="209" r="9" fill="#f5d142"/><circle cx="174" cy="365" r="13" fill="#f5d142"/><circle cx="319" cy="258" r="11" fill="#d9342b"/><circle cx="266" cy="314" r="12" fill="#d9342b"/><circle cx="318" cy="160" r="10" fill="#d9342b"/><circle cx="333" cy="314" r="13" fill="#d9342b"/><circle cx="303" cy="287" r="10" fill="#f5d142"/><circle cx="295" cy="270" r="11" fill="#d9342b"/><circle cx="292" cy="306" r="12" fill="#d9342b"/><circle cx="343" cy="436" r="15" fill="#f5d142"/><circle cx="201" cy="405" r="15" fill="#f5d142"/><circle cx="158" cy="280" r="15" fill="#d9342b"/><circle cx="262" cy="349" r="16" fill="#d9342b"/><circle cx="230" cy="390" r="14" fill="#d9342b"/><circle cx="305" cy="313" r="16" fill="#d9342b"/><circle cx="230" cy="170" r="13" fill="#f5d142"/><circle cx="351" cy="439" r="10" fill="#f5d142"/><circle cx="281" cy="410" r="11" fill="#f5d142"/><circle cx="300" cy="287" r="16" fill="#d9342b"/><circle cx="313" cy="393" r="12" fill="#f5d142"/><circle cx="356" cy="284" r="16" fill="#d9342b"/><circle cx="366" cy="373" r="15" fill="#d9342b"/><circle cx="285" cy="413" r="16" fill="#f5d142"/><circle cx="308" cy="204" r="10" fill="#f5d142"/><circle cx="407" cy="311" r="12" fill="#f5d142"/><text x="300" y="574" text-anchor="middle" font-family="Arial,sans-serif" font-size="18" fill="#a89f92" letter-spacing="3">MOCK IMAGE · SWEET CORN TOMATO</text></svg>